<svg width="1200" height="300" viewBox="0 0 1200 300" fill="none" xmlns="http://www.w3.org/2000/svg">
<defs>
  <linearGradient id="bg" x1="0" y1="0" x2="1200" y2="300" gradientUnits="userSpaceOnUse">
    <stop offset="0%" stop-color="#060608"/>
    <stop offset="50%" stop-color="#08080d"/>
    <stop offset="100%" stop-color="#050508"/>
  </linearGradient>
  <radialGradient id="orb-glow" cx="155" cy="140" r="130" gradientUnits="userSpaceOnUse">
    <stop offset="0%" stop-color="#7c3aed" stop-opacity="0.35"/>
    <stop offset="40%" stop-color="#6d28d9" stop-opacity="0.15"/>
    <stop offset="100%" stop-color="#7c3aed" stop-opacity="0"/>
  </radialGradient>
  <radialGradient id="orb-core" cx="155" cy="140" r="72" gradientUnits="userSpaceOnUse">
    <stop offset="0%" stop-color="#c4b5fd" stop-opacity="0.18"/>
    <stop offset="45%" stop-color="#8b5cf6" stop-opacity="0.08"/>
    <stop offset="100%" stop-color="#6d28d9" stop-opacity="0"/>
  </radialGradient>
  <radialGradient id="aurora-right" cx="980" cy="150" r="280" gradientUnits="userSpaceOnUse">
    <stop offset="0%" stop-color="#0891b2" stop-opacity="0.14"/>
    <stop offset="60%" stop-color="#0e7490" stop-opacity="0.04"/>
    <stop offset="100%" stop-color="#0891b2" stop-opacity="0"/>
  </radialGradient>
  <linearGradient id="title-grad" x1="248" y1="0" x2="620" y2="0" gradientUnits="userSpaceOnUse">
    <stop offset="0%" stop-color="#a78bfa"/>
    <stop offset="55%" stop-color="#c084fc"/>
    <stop offset="100%" stop-color="#67e8f9"/>
  </linearGradient>
  <linearGradient id="orb-hex-grad" x1="90" y1="70" x2="220" y2="210" gradientUnits="userSpaceOnUse">
    <stop offset="0%" stop-color="#a78bfa"/>
    <stop offset="100%" stop-color="#22d3ee"/>
  </linearGradient>
  <linearGradient id="wave-grad" x1="660" y1="0" x2="1170" y2="0" gradientUnits="userSpaceOnUse">
    <stop offset="0%" stop-color="#8b5cf6" stop-opacity="0"/>
    <stop offset="8%" stop-color="#8b5cf6" stop-opacity="0.9"/>
    <stop offset="42%" stop-color="#c084fc" stop-opacity="0.85"/>
    <stop offset="75%" stop-color="#22d3ee" stop-opacity="0.85"/>
    <stop offset="100%" stop-color="#22d3ee" stop-opacity="0"/>
  </linearGradient>
  <linearGradient id="wave-glow" x1="660" y1="0" x2="1170" y2="0" gradientUnits="userSpaceOnUse">
    <stop offset="0%" stop-color="#8b5cf6" stop-opacity="0"/>
    <stop offset="8%" stop-color="#8b5cf6" stop-opacity="0.35"/>
    <stop offset="50%" stop-color="#c084fc" stop-opacity="0.28"/>
    <stop offset="90%" stop-color="#22d3ee" stop-opacity="0.28"/>
    <stop offset="100%" stop-color="#22d3ee" stop-opacity="0"/>
  </linearGradient>
  <linearGradient id="sep-grad" x1="0" y1="0" x2="1200" y2="0" gradientUnits="userSpaceOnUse">
    <stop offset="0%" stop-color="#8b5cf6" stop-opacity="0"/>
    <stop offset="20%" stop-color="#8b5cf6" stop-opacity="0.5"/>
    <stop offset="80%" stop-color="#22d3ee" stop-opacity="0.5"/>
    <stop offset="100%" stop-color="#22d3ee" stop-opacity="0"/>
  </linearGradient>
  <filter id="blur5"><feGaussianBlur stdDeviation="5"/></filter>
  <filter id="blur10"><feGaussianBlur stdDeviation="10"/></filter>
  <filter id="blur18"><feGaussianBlur stdDeviation="18"/></filter>
</defs>

<!-- Background -->
<rect width="1200" height="300" fill="url(#bg)"/>
<rect width="1200" height="300" fill="url(#aurora-right)"/>

<!-- Subtle grid lines -->
<g stroke="#0d0d1a" stroke-width="0.5" opacity="0.9">
  <line x1="0" y1="75" x2="1200" y2="75"/>
  <line x1="0" y1="150" x2="1200" y2="150"/>
  <line x1="0" y1="225" x2="1200" y2="225"/>
  <line x1="300" y1="0" x2="300" y2="300" opacity="0.5"/>
  <line x1="600" y1="0" x2="600" y2="300" opacity="0.5"/>
  <line x1="900" y1="0" x2="900" y2="300" opacity="0.5"/>
</g>

<!-- === AnomalySphere Orb === -->
<circle cx="155" cy="140" r="120" fill="url(#orb-glow)" filter="url(#blur18)"/>
<polygon points="155,52 224,92 224,172 155,212 86,172 86,92" fill="none" stroke="url(#orb-hex-grad)" stroke-width="1.2" opacity="0.4"/>
<polygon points="155,70 208,99 208,161 155,190 102,161 102,99" fill="none" stroke="#a78bfa" stroke-width="0.9" opacity="0.28"/>
<polygon points="155,88 194,110 194,150 155,172 116,150 116,110" fill="none" stroke="#22d3ee" stroke-width="0.7" opacity="0.22"/>
<polygon points="155,108 174,119 174,141 155,152 136,141 136,119" fill="none" stroke="url(#orb-hex-grad)" stroke-width="0.6" opacity="0.32"/>
<circle cx="155" cy="140" r="100" fill="none" stroke="url(#orb-hex-grad)" stroke-width="0.5" opacity="0.07"/>
<circle cx="155" cy="140" r="80" fill="none" stroke="#8b5cf6" stroke-width="0.5" opacity="0.1"/>
<circle cx="155" cy="140" r="62" fill="none" stroke="#22d3ee" stroke-width="0.5" opacity="0.12"/>
<circle cx="155" cy="140" r="68" fill="url(#orb-core)" filter="url(#blur10)"/>
<g stroke="url(#orb-hex-grad)" stroke-width="0.5" opacity="0.18">
  <line x1="155" y1="140" x2="224" y2="92"/>
  <line x1="155" y1="140" x2="224" y2="172"/>
  <line x1="155" y1="140" x2="155" y2="52"/>
  <line x1="155" y1="140" x2="155" y2="212"/>
  <line x1="155" y1="140" x2="86" y2="92"/>
  <line x1="155" y1="140" x2="86" y2="172"/>
</g>
<circle cx="224" cy="92"  r="2.5" fill="#a78bfa" opacity="0.75"/>
<circle cx="224" cy="172" r="2.5" fill="#a78bfa" opacity="0.6"/>
<circle cx="155" cy="52"  r="2.5" fill="#c4b5fd" opacity="0.85"/>
<circle cx="155" cy="212" r="2.5" fill="#22d3ee" opacity="0.75"/>
<circle cx="86"  cy="92"  r="2.5" fill="#22d3ee" opacity="0.6"/>
<circle cx="86"  cy="172" r="2.5" fill="#67e8f9" opacity="0.6"/>
<circle cx="155" cy="140" r="20" fill="#1a0a2e" opacity="0.9"/>
<circle cx="155" cy="140" r="20" fill="none" stroke="url(#orb-hex-grad)" stroke-width="1" opacity="0.6"/>
<circle cx="155" cy="140" r="10" fill="#2d1060" opacity="0.8"/>
<circle cx="154" cy="138" r="4" fill="#e9d5ff" opacity="0.55"/>
<circle cx="155" cy="140" r="20" fill="#7c3aed" filter="url(#blur5)" opacity="0.2"/>

<!-- Particles -->
<circle cx="248" cy="80"  r="1.5" fill="#a78bfa" opacity="0.45"/>
<circle cx="52"  cy="95"  r="1"   fill="#22d3ee" opacity="0.4"/>
<circle cx="260" cy="155" r="1"   fill="#c084fc" opacity="0.3"/>
<circle cx="45"  cy="175" r="1.5" fill="#67e8f9" opacity="0.35"/>
<circle cx="130" cy="38"  r="1"   fill="#a78bfa" opacity="0.35"/>
<circle cx="185" cy="230" r="1.5" fill="#8b5cf6" opacity="0.3"/>
<circle cx="72"  cy="228" r="1"   fill="#22d3ee" opacity="0.3"/>
<circle cx="238" cy="208" r="1"   fill="#c084fc" opacity="0.25"/>

<!-- === Text Section === -->
<rect x="248" y="38" width="156" height="18" rx="4" fill="#0f0f1a" stroke="#3b1f6e" stroke-width="0.8" opacity="0.95"/>
<text x="326" y="51" font-family="'SF Mono','Fira Code',Consolas,monospace" font-size="9.5" fill="#8b5cf6" text-anchor="middle" letter-spacing="0.12em">v2.1 · OBSIDIAN STUDIO</text>

<text x="248" y="100" font-family="-apple-system,BlinkMacSystemFont,'Segoe UI',sans-serif" font-size="52" font-weight="700" fill="url(#title-grad)" letter-spacing="-0.01em">Slo-Fi</text>
<text x="250" y="126" font-family="-apple-system,BlinkMacSystemFont,'Segoe UI',sans-serif" font-size="13.5" fill="#6b7280" letter-spacing="0.06em">YOUR BROWSER IS THE STUDIO</text>
<line x1="248" y1="132" x2="500" y2="132" stroke="url(#title-grad)" stroke-width="0.8" opacity="0.5"/>

<!-- Feature tags row 1 -->
<g font-family="'SF Mono','Fira Code',Consolas,monospace" font-size="9.5" letter-spacing="0.07em">
  <rect x="248" y="144" width="64" height="16" rx="3" fill="#1a0a2e" stroke="#4c1d95" stroke-width="0.7" opacity="0.9"/>
  <text x="280" y="155.5" fill="#a78bfa" text-anchor="middle">3D ORB</text>
  <rect x="320" y="144" width="52" height="16" rx="3" fill="#0a1a20" stroke="#164e63" stroke-width="0.7" opacity="0.9"/>
  <text x="346" y="155.5" fill="#22d3ee" text-anchor="middle">BPM</text>
  <rect x="380" y="144" width="48" height="16" rx="3" fill="#0a1a20" stroke="#164e63" stroke-width="0.7" opacity="0.9"/>
  <text x="404" y="155.5" fill="#22d3ee" text-anchor="middle">KEY</text>
  <rect x="436" y="144" width="56" height="16" rx="3" fill="#1a0a2e" stroke="#4c1d95" stroke-width="0.7" opacity="0.9"/>
  <text x="464" y="155.5" fill="#a78bfa" text-anchor="middle">PITCH</text>
  <rect x="500" y="144" width="50" height="16" rx="3" fill="#0a1a20" stroke="#164e63" stroke-width="0.7" opacity="0.9"/>
  <text x="525" y="155.5" fill="#22d3ee" text-anchor="middle">8D</text>
  <rect x="558" y="144" width="52" height="16" rx="3" fill="#1a0a2e" stroke="#4c1d95" stroke-width="0.7" opacity="0.9"/>
  <text x="584" y="155.5" fill="#a78bfa" text-anchor="middle">LOOP</text>
  <!-- Row 2 -->
  <rect x="248" y="166" width="44" height="16" rx="3" fill="#1a0a2e" stroke="#4c1d95" stroke-width="0.7" opacity="0.9"/>
  <text x="270" y="177.5" fill="#a78bfa" text-anchor="middle">EQ</text>
  <rect x="300" y="166" width="62" height="16" rx="3" fill="#0a1a20" stroke="#164e63" stroke-width="0.7" opacity="0.9"/>
  <text x="331" y="177.5" fill="#22d3ee" text-anchor="middle">REVERB</text>
  <rect x="370" y="166" width="64" height="16" rx="3" fill="#1a0a2e" stroke="#4c1d95" stroke-width="0.7" opacity="0.9"/>
  <text x="402" y="177.5" fill="#a78bfa" text-anchor="middle">CHORUS</text>
  <rect x="442" y="166" width="82" height="16" rx="3" fill="#0a1a20" stroke="#164e63" stroke-width="0.7" opacity="0.9"/>
  <text x="483" y="177.5" fill="#22d3ee" text-anchor="middle">SATURATION</text>
  <rect x="532" y="166" width="46" height="16" rx="3" fill="#10100a" stroke="#3d3210" stroke-width="0.7" opacity="0.9"/>
  <text x="555" y="177.5" fill="#fcd34d" text-anchor="middle">PWA</text>
  <rect x="586" y="166" width="46" height="16" rx="3" fill="#0a1510" stroke="#14532d" stroke-width="0.7" opacity="0.9"/>
  <text x="609" y="177.5" fill="#86efac" text-anchor="middle">WAV</text>
</g>

<text x="248" y="208" font-family="-apple-system,BlinkMacSystemFont,'Segoe UI',sans-serif" font-size="11.5" fill="#374151" letter-spacing="0.01em">Slow. Reverb. Key detect. Pitch shift. Loop. Export. All on-device.</text>
<text x="248" y="227" font-family="'SF Mono','Fira Code',Consolas,monospace" font-size="10" fill="#1f2937" letter-spacing="0.08em">⬡  slofi.live  ·  github.com/gurvinny</text>

<!-- === Waveform === -->
<g fill="url(#wave-glow)" filter="url(#blur5)" opacity="0.65">
  <rect x="665" y="130" width="5" height="40"/> <rect x="675" y="118" width="5" height="64"/>
  <rect x="685" y="133" width="5" height="34"/> <rect x="695" y="104" width="5" height="92"/>
  <rect x="705" y="122" width="5" height="56"/> <rect x="715" y="140" width="5" height="20"/>
  <rect x="725" y="108" width="5" height="84"/> <rect x="735" y="126" width="5" height="48"/>
  <rect x="745" y="142" width="5" height="16"/> <rect x="755" y="100" width="5" height="100"/>
  <rect x="765" y="118" width="5" height="64"/> <rect x="775" y="132" width="5" height="36"/>
  <rect x="785" y="96"  width="5" height="108"/><rect x="795" y="114" width="5" height="72"/>
  <rect x="805" y="136" width="5" height="28"/> <rect x="815" y="106" width="5" height="88"/>
  <rect x="825" y="124" width="5" height="52"/> <rect x="835" y="140" width="5" height="20"/>
  <rect x="845" y="112" width="5" height="76"/> <rect x="855" y="128" width="5" height="44"/>
  <rect x="865" y="144" width="5" height="12"/> <rect x="875" y="102" width="5" height="96"/>
  <rect x="885" y="120" width="5" height="60"/> <rect x="895" y="134" width="5" height="32"/>
  <rect x="905" y="98"  width="5" height="104"/><rect x="915" y="116" width="5" height="68"/>
  <rect x="925" y="138" width="5" height="24"/> <rect x="935" y="108" width="5" height="84"/>
  <rect x="945" y="126" width="5" height="48"/> <rect x="955" y="142" width="5" height="16"/>
  <rect x="965" y="110" width="5" height="80"/> <rect x="975" y="128" width="5" height="44"/>
  <rect x="985" y="100" width="5" height="100"/><rect x="995" y="118" width="5" height="64"/>
  <rect x="1005" y="134" width="5" height="32"/><rect x="1015" y="106" width="5" height="88"/>
  <rect x="1025" y="122" width="5" height="56"/><rect x="1035" y="138" width="5" height="24"/>
  <rect x="1045" y="112" width="5" height="76"/><rect x="1055" y="128" width="5" height="44"/>
  <rect x="1065" y="140" width="5" height="20"/><rect x="1075" y="104" width="5" height="92"/>
  <rect x="1085" y="120" width="5" height="60"/><rect x="1095" y="136" width="5" height="28"/>
  <rect x="1105" y="108" width="5" height="84"/><rect x="1115" y="126" width="5" height="48"/>
  <rect x="1125" y="142" width="5" height="16"/><rect x="1135" y="116" width="5" height="68"/>
  <rect x="1145" y="130" width="5" height="40"/><rect x="1155" y="140" width="5" height="20"/>
</g>
<g fill="url(#wave-grad)">
  <rect x="665" y="130" width="5" height="40"/> <rect x="675" y="118" width="5" height="64"/>
  <rect x="685" y="133" width="5" height="34"/> <rect x="695" y="104" width="5" height="92"/>
  <rect x="705" y="122" width="5" height="56"/> <rect x="715" y="140" width="5" height="20"/>
  <rect x="725" y="108" width="5" height="84"/> <rect x="735" y="126" width="5" height="48"/>
  <rect x="745" y="142" width="5" height="16"/> <rect x="755" y="100" width="5" height="100"/>
  <rect x="765" y="118" width="5" height="64"/> <rect x="775" y="132" width="5" height="36"/>
  <rect x="785" y="96"  width="5" height="108"/><rect x="795" y="114" width="5" height="72"/>
  <rect x="805" y="136" width="5" height="28"/> <rect x="815" y="106" width="5" height="88"/>
  <rect x="825" y="124" width="5" height="52"/> <rect x="835" y="140" width="5" height="20"/>
  <rect x="845" y="112" width="5" height="76"/> <rect x="855" y="128" width="5" height="44"/>
  <rect x="865" y="144" width="5" height="12"/> <rect x="875" y="102" width="5" height="96"/>
  <rect x="885" y="120" width="5" height="60"/> <rect x="895" y="134" width="5" height="32"/>
  <rect x="905" y="98"  width="5" height="104"/><rect x="915" y="116" width="5" height="68"/>
  <rect x="925" y="138" width="5" height="24"/> <rect x="935" y="108" width="5" height="84"/>
  <rect x="945" y="126" width="5" height="48"/> <rect x="955" y="142" width="5" height="16"/>
  <rect x="965" y="110" width="5" height="80"/> <rect x="975" y="128" width="5" height="44"/>
  <rect x="985" y="100" width="5" height="100"/><rect x="995" y="118" width="5" height="64"/>
  <rect x="1005" y="134" width="5" height="32"/><rect x="1015" y="106" width="5" height="88"/>
  <rect x="1025" y="122" width="5" height="56"/><rect x="1035" y="138" width="5" height="24"/>
  <rect x="1045" y="112" width="5" height="76"/><rect x="1055" y="128" width="5" height="44"/>
  <rect x="1065" y="140" width="5" height="20"/><rect x="1075" y="104" width="5" height="92"/>
  <rect x="1085" y="120" width="5" height="60"/><rect x="1095" y="136" width="5" height="28"/>
  <rect x="1105" y="108" width="5" height="84"/><rect x="1115" y="126" width="5" height="48"/>
  <rect x="1125" y="142" width="5" height="16"/><rect x="1135" y="116" width="5" height="68"/>
  <rect x="1145" y="130" width="5" height="40"/><rect x="1155" y="140" width="5" height="20"/>
</g>

<rect x="665" y="88" width="155" height="124" fill="#7c3aed" opacity="0.035"/>
<line x1="820" y1="84" x2="820" y2="216" stroke="#c084fc" stroke-width="10" opacity="0.1" filter="url(#blur5)"/>
<line x1="820" y1="84" x2="820" y2="216" stroke="#c084fc" stroke-width="1.5" opacity="0.92"/>
<circle cx="820" cy="150" r="9"  fill="none" stroke="#c084fc" stroke-width="0.8" opacity="0.35"/>
<circle cx="820" cy="150" r="5"  fill="#c084fc"/>
<circle cx="819" cy="149" r="2"  fill="white" opacity="0.65"/>
<circle cx="820" cy="150" r="5" fill="#c084fc" filter="url(#blur5)" opacity="0.6"/>

<!-- BPM / Key chips -->
<rect x="665" y="66" width="60" height="14" rx="3" fill="#0f0f1a" stroke="#1e1b4b" stroke-width="0.6"/>
<text x="695" y="76.5" font-family="'SF Mono','Fira Code',Consolas,monospace" font-size="8.5" fill="#8b5cf6" text-anchor="middle" letter-spacing="0.08em">87 BPM</text>
<rect x="733" y="66" width="52" height="14" rx="3" fill="#0f0f1a" stroke="#1e1b4b" stroke-width="0.6"/>
<text x="759" y="76.5" font-family="'SF Mono','Fira Code',Consolas,monospace" font-size="8.5" fill="#22d3ee" text-anchor="middle" letter-spacing="0.08em">A♭ min</text>

<!-- Theme dots -->
<circle cx="665" cy="235" r="5" fill="#c084fc"/>
<circle cx="679" cy="235" r="5" fill="#111111"/>
<circle cx="693" cy="235" r="5" fill="#39ff14" opacity="0.9"/>
<circle cx="707" cy="235" r="5" fill="#ff6a00" opacity="0.9"/>
<circle cx="721" cy="235" r="5" fill="#67e8f9"/>
<circle cx="735" cy="235" r="5" fill="#e2e8f0" opacity="0.7"/>
<text x="745" y="239" font-family="'SF Mono','Fira Code',Consolas,monospace" font-size="8.5" fill="#374151" letter-spacing="0.08em">6 THEMES</text>

<!-- Speed chip -->
<rect x="665" y="246" width="84" height="14" rx="3" fill="#0f0f1a" stroke="#1e1b4b" stroke-width="0.6"/>
<text x="707" y="256.5" font-family="'SF Mono','Fira Code',Consolas,monospace" font-size="8.5" fill="#a78bfa" text-anchor="middle" letter-spacing="0.06em">0.75× SPEED</text>

<!-- Bottom separator and bar -->
<line x1="0" y1="272" x2="1200" y2="272" stroke="url(#sep-grad)" stroke-width="0.7"/>
<text x="600" y="288" font-family="'SF Mono','Fira Code',Consolas,monospace" font-size="9.5" fill="#1f2937" text-anchor="middle" letter-spacing="0.13em">🔒  ALL AUDIO ON-DEVICE  ·  ZERO UPLOADS  ·  ZERO TRACKING  ·  OFFLINE-READY</text>

<!-- Corner brackets -->
<path d="M 0 18 L 0 0 L 18 0" stroke="#8b5cf6" stroke-width="1.5" stroke-linecap="round" fill="none" opacity="0.5"/>
<circle cx="0" cy="0" r="2" fill="#8b5cf6" opacity="0.7"/>
<path d="M 1182 0 L 1200 0 L 1200 18" stroke="#22d3ee" stroke-width="1.5" stroke-linecap="round" fill="none" opacity="0.5"/>
<circle cx="1200" cy="0" r="2" fill="#22d3ee" opacity="0.7"/>
<path d="M 0 282 L 0 300 L 18 300" stroke="#8b5cf6" stroke-width="1.5" stroke-linecap="round" fill="none" opacity="0.5"/>
<circle cx="0" cy="300" r="2" fill="#8b5cf6" opacity="0.7"/>
<path d="M 1182 300 L 1200 300 L 1200 282" stroke="#22d3ee" stroke-width="1.5" stroke-linecap="round" fill="none" opacity="0.5"/>
<circle cx="1200" cy="300" r="2" fill="#22d3ee" opacity="0.7"/>

<!-- Ambient particles -->
<circle cx="640" cy="42"   r="1.5" fill="#8b5cf6" opacity="0.4"/>
<circle cx="1172" cy="48"  r="1.5" fill="#22d3ee" opacity="0.38"/>
<circle cx="1182" cy="120" r="1"   fill="#a78bfa" opacity="0.28"/>
<circle cx="1168" cy="215" r="1.5" fill="#22d3ee" opacity="0.32"/>
<circle cx="635"  cy="195" r="1"   fill="#c084fc" opacity="0.28"/>
</svg>
